2.5Hzlow3min_grf.mot
version=1
nRows=10
nColumns 19
inDegrees=yes
endheader
time	1_ground_force_vx	1_ground_force_vy	1_ground_force_vz	1_ground_force_px	1_ground_force_py	1_ground_force_pz	1_ground_torque_x	1_ground_torque_y	1_ground_torque_z	2_ground_force_vx	2_ground_force_vy	2_ground_force_vz	2_ground_force_px	2_ground_force_py	2_ground_force_pz	2_ground_torque_x	2_ground_torque_y	2_ground_torque_z
            2.502500	            0.458685	            2.342363	            0.284046	           -0.233013	            0.005581	           -0.255695	            0.155483	           -0.017752	           -0.093787	            0.700940	            0.553476	            0.424025	           -0.232311	            0.006130	           -0.833667	           -0.281359	           -0.142068	           -0.207738
            2.503000	            0.046473	            2.161427	            0.421865	           -0.233013	            0.005581	           -0.255695	            0.055942	           -0.129038	           -0.074007	            0.372243	            0.737110	            0.237109	           -0.232311	            0.006130	           -0.833667	           -0.243857	           -0.123027	           -0.207687
            2.503500	            0.366688	            3.424136	            0.243056	           -0.233013	            0.005581	           -0.255695	            0.063040	           -0.165950	           -0.041746	            0.701584	            0.369495	            0.376440	           -0.232311	            0.006130	           -0.833667	           -0.168845	           -0.075829	           -0.113299
            2.504000	           -0.091580	            3.784185	            0.337451	           -0.233013	            0.005581	           -0.255695	            0.077809	           -0.175720	            0.013807	            0.603855	            1.474381	            0.286566	           -0.232311	            0.006130	           -0.833667	           -0.225139	           -0.113238	           -0.283062
            2.504500	            0.138012	            2.341907	            0.376554	           -0.233013	            0.005581	           -0.255695	            0.151543	           -0.045627	           -0.107580	            0.559020	            0.921600	            0.331543	           -0.232311	            0.006130	           -0.833667	           -0.337860	           -0.104394	           -0.226430
            2.505000	            0.321009	            2.522798	            0.239305	           -0.233013	            0.005581	           -0.255695	            0.213914	           -0.073750	            0.012746	            0.514225	            0.368484	            0.470376	           -0.232311	            0.006130	           -0.833667	           -0.318905	           -0.142406	           -0.151172
            2.505500	            0.366787	            2.883339	            0.240737	           -0.233013	            0.005581	           -0.255695	            0.157366	           -0.046009	            0.014947	            0.655440	            0.184843	            0.469659	           -0.232311	            0.006130	           -0.833667	           -0.055987	           -0.122483	           -0.170066
            2.506000	           -0.045555	            2.162000	            0.284525	           -0.233013	            0.005581	           -0.255695	            0.118421	           -0.018717	            0.053988	            0.324708	            0.921256	            0.190858	           -0.232311	            0.006130	           -0.833667	           -0.131197	           -0.103849	           -0.169967
            2.506500	            0.046065	            2.522549	            0.285843	           -0.233013	            0.005581	           -0.255695	            0.118126	           -0.129434	            0.019815	            0.370270	            1.289387	            0.286009	           -0.232311	            0.006130	           -0.833667	           -0.206356	           -0.094802	           -0.132201
            2.507000	            0.000435	            1.981546	            0.329494	           -0.233013	            0.005581	           -0.255695	            0.041525	           -0.166603	            0.055506	            0.701042	            0.552639	            0.658666	           -0.232311	            0.006130	           -0.833667	           -0.225182	           -0.094534	           -0.226444
